<svg xmlns="http://www.w3.org/2000/svg" version="1.1" xmlns:xlink="http://www.w3.org/1999/xlink" width="512" height="512" x="0" y="0" viewBox="0 0 60 60" style="enable-background:new 0 0 512 512" xml:space="preserve" class=""><g><path d="M.055 21.216a3.346 3.346 0 0 0 1.469 2.2L11 29.545V57a3 3 0 0 0 3 3h32a3 3 0 0 0 3-3v-8h4a3 3 0 0 0 3-3V25.018l2.476-1.6a3.34 3.34 0 0 0 .871-4.785L49.36 5.144a3.935 3.935 0 0 0-1.844-1.388L38.16.225a3.583 3.583 0 0 0-2.185-.1l-.158.04A23.018 23.018 0 0 1 30 1a23.018 23.018 0 0 1-5.817-.838l-.149-.038a3.614 3.614 0 0 0-2.2.1L12.5 3.751a3.942 3.942 0 0 0-1.852 1.386L.653 18.636a3.341 3.341 0 0 0-.598 2.58ZM53 47H31a1 1 0 0 1-1-1v-2h24v2a1 1 0 0 1-1 1Zm0-24a1 1 0 0 1 1 1v13.666l-5.193-4.195a2.1 2.1 0 0 0-2.655 0L43 36.018l-3.157-2.547a2.106 2.106 0 0 0-2.656 0L30 39.286V24a1 1 0 0 1 1-1ZM30 41.857l8.447-6.828a.11.11 0 0 1 .145 0l2.821 2.271-5.807 4.7H30Zm17.407-6.828a.11.11 0 0 1 .145 0L54 40.237V42H38.787Zm10.332-15.2a1.338 1.338 0 0 1-.348 1.915L55.746 22.8A3 3 0 0 0 53 21h-4V8.02ZM35.677 2.258C35.115 4.442 33.674 7 30 7s-5.115-2.559-5.677-4.743A23.655 23.655 0 0 0 30 3a23.662 23.662 0 0 0 5.677-.742ZM22.261 2.2C23.154 6.48 25.985 9 30 9s6.845-2.521 7.739-6.8l9.082 3.429a1.863 1.863 0 0 1 .181.1V21H44v-1a1 1 0 0 0-2 0v1H31a3 3 0 0 0-3 3v22a3 3 0 0 0 3 3h16v8a1 1 0 0 1-1 1H14a1 1 0 0 1-1-1V5.731a1.794 1.794 0 0 1 .193-.1Zm-20 17.622L11 8.02v19.144l-8.39-5.423a1.339 1.339 0 0 1-.349-1.916Z" fill="#000000" opacity="1" data-original="#000000" class=""></path><path d="M35.5 32a3.5 3.5 0 1 0-3.5-3.5 3.5 3.5 0 0 0 3.5 3.5Zm0-5a1.5 1.5 0 1 1-1.5 1.5 1.5 1.5 0 0 1 1.5-1.5ZM17 17a1 1 0 0 0 1-1 1 1 0 0 1 1-1 1 1 0 0 0 0-2 3 3 0 0 0-3 3 1 1 0 0 0 1 1ZM41 15a1 1 0 0 1 1 1 1 1 0 0 0 2 0 3 3 0 0 0-3-3 1 1 0 0 0 0 2ZM23 15h2a1 1 0 0 0 0-2h-2a1 1 0 0 0 0 2ZM29 15h2a1 1 0 0 0 0-2h-2a1 1 0 0 0 0 2ZM35 15h2a1 1 0 0 0 0-2h-2a1 1 0 0 0 0 2ZM19 41a1 1 0 0 0 0-2 1 1 0 0 1-1-1 1 1 0 0 0-2 0 3 3 0 0 0 3 3ZM23 41h2a1 1 0 0 0 0-2h-2a1 1 0 0 0 0 2ZM17 23a1 1 0 0 0 1-1v-2a1 1 0 0 0-2 0v2a1 1 0 0 0 1 1ZM17 29a1 1 0 0 0 1-1v-2a1 1 0 0 0-2 0v2a1 1 0 0 0 1 1ZM17 35a1 1 0 0 0 1-1v-2a1 1 0 0 0-2 0v2a1 1 0 0 0 1 1ZM42 30h2a1 1 0 0 0 0-2h-2a1 1 0 0 0 0 2ZM49 29h2a1 1 0 0 0 0-2h-2a1 1 0 0 0 0 2Z" fill="#000000" opacity="1" data-original="#000000" class=""></path></g></svg>