<svg xmlns="http://www.w3.org/2000/svg" version="1.1" xmlns:xlink="http://www.w3.org/1999/xlink" width="512" height="512" x="0" y="0" viewBox="0 0 450 450" style="enable-background:new 0 0 512 512" xml:space="preserve" class=""><g><path d="M43.2 380.29c-2.23 0-4.49-.48-6.63-1.49l-22.64-10.72c-3.78-1.79-6.63-4.94-8.02-8.88s-1.17-8.18.63-11.95c.02-.04.04-.09.07-.13l7.36-14.23a5.015 5.015 0 0 1 6.74-2.15 5.013 5.013 0 0 1 2.15 6.74l-7.32 14.16a5.588 5.588 0 0 0-.2 4.23c.5 1.41 1.52 2.54 2.88 3.18l22.64 10.72c2.77 1.31 6.11.13 7.44-2.64.02-.04.04-.08.06-.13l7.82-15.21a4.996 4.996 0 0 1 6.73-2.16 4.996 4.996 0 0 1 2.16 6.73l-7.79 15.16c-2.71 5.53-8.29 8.77-14.08 8.77zM406.8 380.28c-5.82 0-11.42-3.27-14.1-8.85-.02-.05-.05-.1-.07-.15l-6.69-15.2a5.005 5.005 0 0 1 2.56-6.59c2.53-1.11 5.48.04 6.59 2.56l6.65 15.12a5.616 5.616 0 0 0 7.41 2.58l22.64-10.72c1.36-.64 2.38-1.77 2.88-3.18s.42-2.93-.23-4.29c-.02-.05-.05-.1-.07-.16l-6.22-14.22a4.99 4.99 0 0 1 2.58-6.58 4.99 4.99 0 0 1 6.58 2.58l6.19 14.15c1.77 3.75 1.98 7.96.59 11.87-1.4 3.94-4.25 7.09-8.02 8.88l-22.64 10.72c-2.13 1-4.4 1.48-6.63 1.48zM317.29 393.48H133.85c-7.57 0-13.72-6.16-13.72-13.72V204.42c0-26.94-7.79-52.62-22.52-74.28-3.2-4.7-6.48-8.88-9.75-12.4-1.88-2.03-1.76-5.19.27-7.07s5.19-1.76 7.07.27c3.61 3.89 7.2 8.46 10.68 13.58 15.87 23.32 24.25 50.95 24.25 79.9v175.35c0 2.05 1.67 3.72 3.72 3.72h183.44c2.05 0 3.72-1.67 3.72-3.72V204.42c0-28.95 8.39-56.58 24.25-79.9 3.48-5.12 7.08-9.68 10.68-13.57 1.88-2.03 5.04-2.14 7.07-.27a5.016 5.016 0 0 1 .27 7.07c-3.27 3.53-6.55 7.7-9.75 12.4-14.73 21.65-22.52 47.34-22.52 74.28v175.35c0 7.55-6.15 13.7-13.72 13.7z" fill="#000000" opacity="1" data-original="#000000"></path><path d="M309.81 418.35H141.33c-6.88 0-12.48-5.6-12.48-12.48v-17.39c0-2.76 2.24-5 5-5s5 2.24 5 5v17.39a2.48 2.48 0 0 0 2.48 2.48h168.48a2.48 2.48 0 0 0 2.48-2.48v-17.39c0-2.76 2.24-5 5-5s5 2.24 5 5v17.39c0 6.89-5.6 12.48-12.48 12.48zM64.21 359.85c-1.88 0-3.8-.39-5.64-1.22L16.49 339.8c-.06-.02-.11-.05-.17-.07-6.51-2.93-9.7-10.48-7.24-17.19l71.54-196.28c9.65-26.46 29.87-47.7 55.72-58.67 1.71-8.55 9.05-31.4 38.97-35.89.25-.04.49-.06.74-.06h99.04c.25 0 .5.02.74.06 29.92 4.49 37.26 27.34 38.97 35.88 20.84 8.85 38.24 24.51 49.19 44.34 2.54 4.59 4.73 9.42 6.52 14.34l71.55 196.28c2.42 6.68-.71 14.17-7.14 17.13-.08.04-.16.08-.25.11l-42.11 18.85c-1.76.79-3.64 1.2-5.59 1.2-5.26 0-9.97-2.94-12.3-7.66l-53.15-108.69a5.006 5.006 0 0 1 2.29-6.69 5.006 5.006 0 0 1 6.69 2.29l53.15 108.67a3.707 3.707 0 0 0 3.33 2.07c.52 0 1.02-.11 1.49-.32l42.17-18.88.06-.03a3.713 3.713 0 0 0 1.96-4.64l-71.54-196.27c-1.62-4.44-3.6-8.79-5.88-12.93-10.29-18.64-26.9-33.18-46.76-40.95a5.015 5.015 0 0 1-3.17-4.32c-.08-1.02-2.27-25.38-30.61-29.84h-98.27c-28.35 4.45-30.53 28.83-30.61 29.87-.15 1.91-1.38 3.6-3.17 4.3a91.527 91.527 0 0 0-52.64 53.87L18.48 325.97c-.65 1.78.16 3.78 1.85 4.59.04.02.08.03.12.05l42.2 18.9c1.83.82 3.94.06 4.81-1.73l53.17-108.68a4.994 4.994 0 0 1 6.69-2.29 4.994 4.994 0 0 1 2.29 6.69L76.44 352.17a13.567 13.567 0 0 1-12.23 7.68z" fill="#000000" opacity="1" data-original="#000000"></path><path d="M225.57 132.37c-1.83 0-3.51-1-4.39-2.6l-49.52-90.73a5 5 0 0 1 1.99-6.78 4.998 4.998 0 0 1 6.78 1.99l45.13 82.69 45.13-82.69c1.32-2.42 4.36-3.32 6.78-1.99 2.42 1.32 3.32 4.36 1.99 6.78l-49.52 90.73a4.938 4.938 0 0 1-4.37 2.6z" fill="#000000" opacity="1" data-original="#000000"></path><path d="M261.4 66.72h-71.67c-2.76 0-5-2.24-5-5s2.24-5 5-5h71.67c2.76 0 5 2.24 5 5s-2.24 5-5 5z" fill="#000000" opacity="1" data-original="#000000"></path><path d="M225.57 132.37c-.96 0-1.93-.28-2.76-.83l-84.74-56.21c-2.3-1.53-2.93-4.63-1.4-6.93s4.63-2.93 6.93-1.4l81.97 54.38 81.97-54.39c2.3-1.53 5.41-.9 6.93 1.4 1.53 2.3.9 5.4-1.4 6.93l-84.74 56.23c-.84.55-1.8.82-2.76.82z" fill="#000000" opacity="1" data-original="#000000"></path><path d="M196.03 191.23c-2.76 0-5-2.24-5-5v-78.45c0-2.76 2.24-5 5-5s5 2.24 5 5v78.45c0 2.76-2.24 5-5 5zM255.11 191.23c-2.76 0-5-2.24-5-5v-78.45c0-2.76 2.24-5 5-5s5 2.24 5 5v78.45c0 2.76-2.24 5-5 5z" fill="#000000" opacity="1" data-original="#000000"></path></g></svg>