<svg xmlns="http://www.w3.org/2000/svg" version="1.1" xmlns:xlink="http://www.w3.org/1999/xlink" width="512" height="512" x="0" y="0" viewBox="0 0 512 512" style="enable-background:new 0 0 512 512" xml:space="preserve" class=""><g><path d="M163.82 263c-17.82 15-45.97 15-63.82 0a6.24 6.24 0 0 0-8 9.48 61.92 61.92 0 0 0 79.92 0 6.24 6.24 0 1 0-8.05-9.53zM395.8 263.4c-17.84 15.06-46 15.06-63.81 0a6.24 6.24 0 0 0-8.05 9.53 61.87 61.87 0 0 0 79.91 0 6.24 6.24 0 0 0-8.05-9.53z" fill="#000000" opacity="1" data-original="#000000" class=""></path><path d="M459.42 240.45c-1.69 0-3.15.08-4.47.19.13-1.61.21-3.22.25-4.85l.35-.89c4.09-10.4 8.72-22.18 8.72-34.82 0-53.47-42.36-92.29-100.73-92.29-58 0-100 38.82-100 92.29 0 12.76 4.08 24.55 8.35 35.56 0 1.66.12 3.3.25 4.94-1.14-.08-2.38-.13-3.75-.13-15.66 0-44.67 6.48-42.72 54.92l.28.05c3.66.31 7.08.46 10.29.46 29 0 40-12.12 43.66-24.86a92.1 92.1 0 0 0 23.31 31.42A133.8 133.8 0 0 0 259.89 347a6.4 6.4 0 0 0-.82.9 5.6 5.6 0 0 0-.37 1 129 129 0 0 0-10.8 25.79A128.77 128.77 0 0 0 237.12 349a6.41 6.41 0 0 0-.38-1.09 6.33 6.33 0 0 0-.89-1A133.83 133.83 0 0 0 192 302.2a91.56 91.56 0 0 0 31.3-62.4c0-.07.11-.11.13-.19 17.27-51 13.19-84.1 13-85.49v-.33c-3.14-16.74-14.64-30.73-33.25-40.46-34.92-18.23-83.76-17.26-109-5.9-33.4 15-53 .61-53.8 0a6.24 6.24 0 0 0-10.06 4.41l-2.79 34.85c-.21 1.69-4.92 41.94 12.34 92.9.12.37.45.6.64.94a91.56 91.56 0 0 0 31.2 61.58A133.79 133.79 0 0 0 27.92 347a5.6 5.6 0 0 0-.84.91 6.18 6.18 0 0 0-.36 1C18 364.48 11.64 383.2 9.79 406.05a6.24 6.24 0 0 0 5.71 6.73h.5a6.25 6.25 0 0 0 6.22-5.73A128.07 128.07 0 0 1 35 360l27.79 16.72v29.87a6.24 6.24 0 0 0 12.48 0v-33.42a6.24 6.24 0 0 0-3-5.35l-31.18-18.73A122.28 122.28 0 0 1 82 309.93a91.19 91.19 0 0 0 99.45.24 124.45 124.45 0 0 1 41.06 39.05l-30.91 18.6a6.23 6.23 0 0 0-3 5.35v33.39a6.24 6.24 0 0 0 12.47 0v-29.87l27.63-16.63a125.8 125.8 0 0 1 12.92 47A6.13 6.13 0 0 0 245 412l.21.12a6.49 6.49 0 0 0 1.66.48c.22 0 .4.16.62.18h.84c.16 0 .29-.11.44-.13a6.19 6.19 0 0 0 5.45-5.59A128.38 128.38 0 0 1 267 360l27.8 16.73v29.87a6.24 6.24 0 0 0 12.48 0v-33.43a6.26 6.26 0 0 0-3-5.35l-31.14-18.74a121.94 121.94 0 0 1 40.34-38.82 91.29 91.29 0 0 0 100.2 0 124.32 124.32 0 0 1 40.86 38.93l-30.91 18.6a6.23 6.23 0 0 0-3 5.35v33.39a6.24 6.24 0 0 0 12.48 0v-29.84l27.63-16.63a126 126 0 0 1 12.91 47 6.24 6.24 0 1 0 12.44-1c-1.84-22.84-8.17-41.52-16.9-57a6.26 6.26 0 0 0-.39-1.1 6.33 6.33 0 0 0-.89-1 133.74 133.74 0 0 0-43.73-44.71 92.13 92.13 0 0 0 23.53-32.13c3.38 13.06 14.24 25.76 43.94 25.76 3.21 0 6.63-.15 10.29-.46l.28-.05c1.87-48.44-27.14-54.92-42.8-54.92zm-194.27 33.11c-4.48 6.21-13.49 9.5-26.81 9.82.91-10.06 3.79-17.66 8.6-22.67 6.18-6.43 15.07-7.79 21.43-7.79h.25c.87 6.3.78 14.76-3.47 20.64zM39.94 148 42 122.34c10.87 4.43 30.76 8.42 57.31-3.53 22.68-10.22 67.51-10.41 98.09 5.58 15.25 8 24.24 18.55 26.73 31.49.24 2.17 2.72 28.13-8.71 67.77l-25.22-36a6.25 6.25 0 0 0-7.42-2.22c-.27.11-27 10.69-51.41 10.88-23.71-.19-50.52-10.77-50.79-10.88a6.26 6.26 0 0 0-7.42 2.22L48 223.59c-11.88-42.4-8.13-75.02-8.06-75.59zm12.94 90.36 27.73-39.61c9.25 3.24 30.69 9.89 51.46 10.05 20.15-.16 41.44-6.8 50.66-10.05L210.91 239a79.21 79.21 0 0 1-158-.64zm310.66-118.09c51.14 0 88.26 33.57 88.26 79.81 0 9-3.09 18-6.46 26.68-23-6.93-66-24.49-75.41-60.67a6.25 6.25 0 0 0-6-4.67h-.35a6.25 6.25 0 0 0-6 4.66c-9.37 35.93-52.56 53.57-75.71 60.57-3.15-8.57-5.8-17.54-5.8-26.57-.07-46.24 36.74-79.81 87.47-79.81zm0 192.51a79.34 79.34 0 0 1-79-74c25.34-7.46 62.72-23.25 79.19-54.46 16.43 31.41 53.64 47.15 78.87 54.56a79.35 79.35 0 0 1-79.06 73.9zm99.09-39.22c-4.25-5.88-4.33-14.36-3.46-20.64h.25c6.36 0 15.24 1.36 21.43 7.79 4.81 5 7.68 12.61 8.59 22.67-13.31-.32-22.33-3.61-26.81-9.82z" fill="#000000" opacity="1" data-original="#000000" class=""></path></g></svg>