<svg xmlns="http://www.w3.org/2000/svg" version="1.1" xmlns:xlink="http://www.w3.org/1999/xlink" width="512" height="512" x="0" y="0" viewBox="0 0 100 100" style="enable-background:new 0 0 512 512" xml:space="preserve" class=""><g><path d="M14.79 75.81c.2 1-.56 4.43.74 5 .3.59 9.23 3.4 9.92-.37l.09-3.32c1.94-.11 1.48-8.54 1.94-9.66.42 1.12-1.35 15.38.85 15.33.31 1.12-.73 5.17.86 5.67.25.11 6.22 2.85 20.84 2.85s20.59-2.74 20.84-2.85c1.55-.49.61-4.57.86-5.67 2.19.11.43-14.28.84-15.34.55 1.31-.16 9.74 2.19 9.76l.09 3.23c.65 3.72 9.27 1 9.51.31 1.14-.57.49-3.51.63-4.47 3.29-11.57-2.51-55.85-6.19-59.74-4.68-3.59-16.49-7.58-17-7.75-7.23.89-14.76 1.45-22.84-.06-1.25 0-12.42 4-17.71 7.81-3.86 3.92-9.1 47.46-6.46 59.27zm7.69 3.45a8.55 8.55 0 0 1-4.69-.69v-1.35a13.5 13.5 0 0 0 4.73.52zm46.25 6.79c-2.06.69-7.9 2.25-18.7 2.25s-16.65-1.56-18.7-2.25v-2.46a75.89 75.89 0 0 0 37.4 0zM82 78.63a6.88 6.88 0 0 1-4.19.63V77.8a14.59 14.59 0 0 0 4.19-.33zM59.1 12.09c-1.56 1.91-5.41 2.85-9.1 2.85s-7.56-1-9.11-2.89a67.09 67.09 0 0 0 18.21.04zm-21.53.11a7.88 7.88 0 0 0 4 4A17.62 17.62 0 0 0 47 17.74c5.38.53 12.88 0 15.48-5.54l1.68.61c-.8 2.08-3.7 6.23-14.17 6.66-10.41-.47-13.33-4.56-14.15-6.64zm-14.48 6.71c2.21-1.7 6.4-3.57 10-5 1.14 3 4.84 8.07 16.9 8.55 11.92-.38 15.92-5.69 17-8.58 3.57 1.42 7.8 3.31 10 5 2.48 2.3 5.14 29.6 6.3 54.93a10.23 10.23 0 0 1-7 .71L72 31.14a1.5 1.5 0 0 0-3 .17l.76 48.91a73.35 73.35 0 0 1-39.49 0l.77-48.91a1.5 1.5 0 0 0-3-.17l-4.27 43.39a10.11 10.11 0 0 1-7-1c1.16-25.19 3.85-52.34 6.32-54.62z" data-name="Layer 29" fill="#000000" opacity="1" data-original="#000000" class=""></path></g></svg>