<svg xmlns="http://www.w3.org/2000/svg" version="1.1" xmlns:xlink="http://www.w3.org/1999/xlink" width="512" height="512" x="0" y="0" viewBox="0 0 153 167" style="enable-background:new 0 0 512 512" xml:space="preserve" fill-rule="evenodd" class=""><g transform="matrix(0.9000000000000004,0,0,0.9000000000000004,7.649999999999949,8.349999999999952)"><path d="M122 83c-2 0-4-1-4-3s2-4 4-4c9 0 19-3 24-5-2-18-6-46-13-51-7-6-23-10-30-12-3 8-15 13-27 13-11 0-23-5-27-13-6 2-22 6-29 12-7 5-11 33-13 51 4 2 15 5 24 5 2 0 4 2 4 4s-2 3-4 3c-14 0-28-7-29-7-1-1-2-2-2-3 0-5 4-49 15-58S50 0 51 0s2 0 3 1c1 0 2 1 2 2 0 5 9 11 20 11 12 0 21-6 21-11 0-1 1-2 2-2 0-1 1-1 2-1s25 6 37 15c11 9 14 53 15 58 0 1-1 2-2 3-1 0-16 7-29 7z" fill="#000000" opacity="1" data-original="#000000" class=""></path><path d="M76 167c-32 0-46-7-46-8-2 0-2-1-2-3V59c0-7-3-15-6-18-2-2-2-4 0-5 1-2 3-2 5 0 5 5 8 14 8 23v95c4 2 17 6 41 6s38-4 42-6V59c0-9 3-18 8-23 1-2 4-2 5 0 1 1 1 3 0 5-4 3-6 11-6 18v97c0 2-1 3-2 3 0 1-14 8-47 8zM76 10c-6 0-24-3-25-3s-3-2-2-4c0-2 2-3 4-3 5 1 19 3 23 3 5 0 19-2 24-3 2 0 4 1 4 3s-1 4-3 4c0 0-18 3-25 3z" fill="#000000" opacity="1" data-original="#000000" class=""></path></g></svg>