<svg width="333" height="167" viewBox="0 0 333 167" fill="none" xmlns="http://www.w3.org/2000/svg">
<g clip-path="url(#clip0_48_206)">
<path d="M314.5 26.6768L259 52.1396L250.591 60.6279L326.272 29.1016L304.409 54.5654L247.228 71.541L235.454 78.8164L307.772 60.6279L282.546 81.2412L233.772 86.0918L223.682 92.1543L280.864 87.3047L257.318 98.2178L220.318 99.4297L210.228 103.068H259L238.818 110.343L203.5 107.918L198.454 110.343L238.818 115.193L218.636 120.044L191.728 112.769V115.193L206.864 121.256L166.5 166.121L126.136 121.256L141.272 115.193V112.769L114.364 120.044L94.1816 115.193L134.546 110.343L129.5 107.918L94.1816 110.343L74 103.068H122.772L112.682 99.4297L75.6816 98.2178L52.1367 87.3047L109.318 92.1543L99.2275 86.0918L50.4541 81.2412L25.2275 60.6279L97.5459 78.8164L85.7725 71.541L28.5908 54.5654L6.72754 29.1016L82.4092 60.6279L74 52.1396L18.5 26.6768L0 0L31.9541 18.1885L75.6816 38.8018L134.546 65.4785H144.636L166.5 86.0918L188.364 65.4785H198.454L257.318 38.8018L301.046 18.1885L333 0L314.5 26.6768ZM166.436 131.382V131.512L166.5 131.446L166.564 131.512V131.382L224.71 73.1719H205.285L166.5 111.671L127.715 73.1719H108.29L166.436 131.382ZM166.564 111.735V131.382L166.5 131.446L166.436 131.382V111.735L166.5 111.671L166.564 111.735Z" fill="black"/>
</g>
<defs>
<clipPath id="clip0_48_206">
<rect width="333" height="167" fill="white"/>
</clipPath>
</defs>
</svg>
